<?xml version="1.0" encoding="utf-8"?>
<!-- Generator: Adobe Illustrator 19.1.0, SVG Export Plug-In . SVG Version: 6.00 Build 0)  -->
<svg version="1.1" id="Layer_1" xmlns="http://www.w3.org/2000/svg" xmlns:xlink="http://www.w3.org/1999/xlink" x="0px" y="0px"
	 viewBox="-92 93 114 116" style="enable-background:new -92 93 114 116;" xml:space="preserve">
<style type="text/css">
	.st0{fill:#FF4055;}
</style>
<g>
	<path class="st0" d="M-66.1,132.9L-66.1,132.9c6.6,0,11.9-5.4,12-12c0-6.6-5.4-12-12-12s-12,5.4-12,12S-72.7,132.9-66.1,132.9z
		 M-66.1,117L-66.1,117c2.2,0,4,1.8,4,4c0,2.2-1.8,4-4,4c-2.2,0-4-1.8-4-4C-70.1,118.8-68.3,117-66.1,117z"/>
	<path class="st0" d="M3.7,93l-95.6,0.1l-0.1,95.6H3.7V93z M-4.3,101v63.8h-11.2l-13.4-34.4c-0.6-1.5-2-2.5-3.6-2.5
		c-1.6,0-3.1,0.9-3.7,2.3l-9.9,21.9l-8.5-10.2c-0.3-0.4-0.6-0.7-1-0.9c-1.9-1.1-4.3-0.5-5.5,1.4l-13.2,22.5H-84l0.1-63.8L-4.3,101z
		 M-24,164.8h-41.1l7.9-13.5l8.9,10.7c0.4,0.5,0.9,0.8,1.4,1.1c2,0.9,4.4,0,5.3-2l8.7-19L-24,164.8z M-84,180.8l0-8h79.8v8H-84z"/>
	<path class="st0" d="M12,124.7C12,124.7,12,124.7,12,124.7c-2.3-0.2-4.2,1.5-4.4,3.6c-0.2,2.2,1.5,4.1,3.7,4.3l2,0.5l-6.1,67.1
		l-71.1-6.5c-2.2-0.2-4.1,1.4-4.3,3.6s1.4,4.1,3.6,4.3l79.1,7.2l7.6-83L12,124.7z"/>
</g>
</svg>
