<svg xmlns="http://www.w3.org/2000/svg" width="123" height="106.03" viewBox="0 0 123 106.03">
  <defs>
    <style>
      .cls-1 {
        fill: #ff4055;
        fill-rule: evenodd;
      }
    </style>
  </defs>
  <path id="icon-assesment.svg" class="cls-1" d="M5312.97,6345.01a3.913,3.913,0,0,1-2.8-1.17l-35.03-35.2a4,4,0,0,1,0-5.64l17.51-17.6a3.947,3.947,0,0,1,5.61,0l14.71,14.78,59.74-60.04a3.959,3.959,0,0,1,5.62,0l17.51,17.6a4,4,0,0,1,0,5.64l-80.06,80.46A3.953,3.953,0,0,1,5312.97,6345.01Zm-29.42-39.19,29.42,29.56,74.45-74.82-11.9-11.96-59.74,60.04a3.947,3.947,0,0,1-5.61,0l-14.71-14.78Z" transform="translate(-5274 -6238.97)"/>
</svg>
