<?xml version="1.0" encoding="utf-8"?>
<!-- Generator: Adobe Illustrator 19.1.0, SVG Export Plug-In . SVG Version: 6.00 Build 0)  -->
<svg version="1.1" id="Layer_1" xmlns="http://www.w3.org/2000/svg" xmlns:xlink="http://www.w3.org/1999/xlink" x="0px" y="0px"
	 viewBox="-115 89 68 124" style="enable-background:new -115 89 68 124;" xml:space="preserve">
<style type="text/css">
	.st0{fill:#FF4055;}
</style>
<g>
	<polygon class="st0" points="-80.7,213 -80.7,213 -80.7,213 	"/>
	<polygon class="st0" points="-80.7,172.6 -80.7,172.6 -80.7,172.6 	"/>
	<path class="st0" d="M-84.7,158.6v10.1c0,0,0,0,0,0c0,2.2,1.8,4,4,4c2.2,0,4-1.8,4-4v-10.1c0,0,0,0,0,0c0-2.2-1.8-4-4-4
		C-82.9,154.6-84.7,156.4-84.7,158.6z"/>
	<path class="st0" d="M-50.9,113h-1.5c-2.5-13.7-14.5-24.1-29-24c-14.3,0.1-26.1,10.4-28.5,24h-1.1c-2.2,0-4,1.8-4,4s1.8,4,4,4h0.7
		c0.9,9,5.8,16.9,13,21.6l4.2,49c0.4,5,3.8,9.2,8.4,10.7v6.7c0,0,0,0,0,0c0,2.2,1.8,4,4,4c2.2,0,4-1.8,4-4v-6.8
		c4.3-1.6,7.5-5.6,7.9-10.4l4.2-49.4c7-4.8,11.7-12.5,12.6-21.4h1.2c2.2,0,4-1.8,4-4S-48.7,113-50.9,113z M-81,97
		c9.9,0,18.1,6.8,20.4,16h-41.1C-99.3,103.8-90.9,96.9-81,97z M-76.8,191.1c-0.2,2.2-2,3.8-4.1,3.8c-2.2,0-4.1-1.7-4.3-3.9
		l-3.8-44.6c2.5,0.7,5.2,1.1,8,1.1c2.8,0,5.5-0.4,8-1.2L-76.8,191.1z M-81.3,139.4c-10.7-0.1-19.5-8.1-20.9-18.4h42
		C-61.5,131.5-70.5,139.5-81.3,139.4z"/>
</g>
</svg>
