<svg xmlns="http://www.w3.org/2000/svg" width="454" height="415" viewBox="0 0 454 415">
  <defs>
    <style>
      .cls-1 {
        fill: #fff;
        fill-rule: evenodd;
      }
    </style>
  </defs>
  <path id="icon-paper-airplane.svg" class="cls-1" d="M4945.98,406.9c0-.259,0-0.515-0.01-0.774-0.03-.353-0.08-0.7-0.14-1.046-0.04-.247-0.07-0.492-0.13-0.737a10.414,10.414,0,0,0-.34-1.09c-0.07-.209-0.13-0.421-0.22-0.626a10.479,10.479,0,0,0-.77-1.488c-0.02-.04-0.04-0.084-0.06-0.123,0,0-.01-0.006-0.01-0.01a11.414,11.414,0,0,0-1.12-1.464c-0.15-.157-0.31-0.288-0.46-0.435a11.1,11.1,0,0,0-.87-0.793c-0.22-.171-0.45-0.313-0.67-0.466s-0.4-.3-0.62-0.425c-0.07-.042-0.15-0.067-0.23-0.107-0.24-.134-0.49-0.243-0.75-0.357-0.3-.138-0.61-0.273-0.92-0.381-0.25-.085-0.5-0.151-0.75-0.218-0.33-.089-0.66-0.169-1-0.226-0.26-.042-0.51-0.071-0.76-0.1-0.35-.033-0.69-0.051-1.04-0.051-0.25,0-.51.006-0.77,0.024-0.35.025-.7,0.073-1.05,0.132-0.25.042-.49,0.08-0.73,0.138a10.807,10.807,0,0,0-1.14.356c-0.16.056-.32,0.082-0.47,0.145L4498.74,574.915a10.907,10.907,0,0,0,.07,20.2l158.36,63.944V800.082a10.909,10.909,0,0,0,20.26,5.618l62.11-103.427,113.6,60.732a10.9,10.9,0,0,0,15.79-7.258l76.82-346.513a4.4,4.4,0,0,0,.07-0.508c0.05-.267.09-0.534,0.12-0.8C4945.97,407.579,4945.98,407.241,4945.98,406.9Zm-63.58,33.491L4730.75,579.443l-64.97,59.566-134-54.111ZM4678.99,760.725V669.9l41.28,22.071Zm171.75-23.741L4686.8,649.339l230.16-211.031Z" transform="translate(-4491.97 -396)"/>
</svg>
