<svg xmlns="http://www.w3.org/2000/svg" width="48" height="48" viewBox="0 0 48 48">
  <defs>
    <style>
      .cls-1 {
        fill: #bebebe;
        fill-rule: evenodd;
      }
    </style>
  </defs>
  <path id="icon-more-info.svg" class="cls-1" d="M10550.4,3376a23.343,23.343,0,0,1,16.5,6.75,24.069,24.069,0,0,1,.2,33.94,24.6,24.6,0,0,1-17.1,7.31h-0.4a23.561,23.561,0,0,1-23.6-23.58h0a23.962,23.962,0,0,1,6.9-17.11,24.6,24.6,0,0,1,17.1-7.31h0.4Zm-0.8,44h0.4a20.152,20.152,0,0,0,14.1-34.4,19.587,19.587,0,0,0-14.1-5.6,20.5,20.5,0,0,0-14.2,6.12,19.722,19.722,0,0,0-5.8,14.23h0A19.616,19.616,0,0,0,10549.6,3420Zm0.4-25a2.006,2.006,0,0,1,2,2v14a2,2,0,0,1-4,0v-14A2.006,2.006,0,0,1,10550,3395Zm0-3h0a2.038,2.038,0,0,0,2-2.03,1.978,1.978,0,0,0-2-1.96h0a2.045,2.045,0,0,0-2,2.03,1.978,1.978,0,0,0,2,1.96h0Z" transform="translate(-10526 -3376)"/>
</svg>
