<svg xmlns="http://www.w3.org/2000/svg" width="106" height="112" viewBox="0 0 106 112">
  <defs>
    <style>
      .cls-1 {
        fill: #ff4055;
        fill-rule: evenodd;
      }
    </style>
  </defs>
  <path id="icon-interactivity.svg" class="cls-1" d="M4789,5864h-32c-2.87,0-6.74-1.45-8.47-4.63l-18.55-36.26a8.917,8.917,0,0,1,7.9-13.07l4.96-.1h0a9.575,9.575,0,0,1,6.16,2.39V5780a9.9,9.9,0,0,1,10-10h4a9.9,9.9,0,0,1,10,10v23.18l26.38,9.45c3.35,1.03,5.62,4.45,5.62,8.66a3.63,3.63,0,0,1-.1.87l-8,35.69a3.4,3.4,0,0,1-.2.64C4795.27,5861.99,4792.46,5864,4789,5864Zm-33.48-8.53a2.767,2.767,0,0,0,1.48.53h32a0.635,0.635,0,0,0,.18-0.29l7.8-34.78a1.633,1.633,0,0,0-.24-0.78l-29.09-10.38A4,4,0,0,1,4765,5806v-26a1.992,1.992,0,0,0-2-2h-4a1.992,1.992,0,0,0-2,2v46a4,4,0,0,1-7.43,2.06l-5.81-9.69a1.8,1.8,0,0,0-.85-0.43l-4.96.1a0.988,0.988,0,0,0-.86.43,0.908,0.908,0,0,0-.04.9ZM4713.09,5760H4703a4,4,0,0,1,0-8h10.09A4,4,0,0,1,4713.09,5760Zm0,20H4703a4,4,0,0,1,0-8h10.09A4,4,0,0,1,4713.09,5780Zm-0.09,20h-10a4,4,0,0,1,0-8h10A4,4,0,0,1,4713,5800Zm24-40h-10a4,4,0,0,1,0-8h10A4,4,0,0,1,4737,5760Zm0,20h-10a4,4,0,0,1,0-8h10A4,4,0,0,1,4737,5780Zm0,20h-10a4,4,0,0,1,0-8h10A4,4,0,0,1,4737,5800Zm26-40h-10a4,4,0,0,1,0-8h10A4,4,0,0,1,4763,5760Z" transform="translate(-4699 -5752)"/>
</svg>
