<?xml version="1.0" encoding="utf-8"?>
<!-- Generator: Adobe Illustrator 19.1.0, SVG Export Plug-In . SVG Version: 6.00 Build 0)  -->
<svg version="1.1" id="Layer_1" xmlns="http://www.w3.org/2000/svg" xmlns:xlink="http://www.w3.org/1999/xlink" x="0px" y="0px"
	 viewBox="-286 213.6 226.4 174.4" style="enable-background:new -286 213.6 226.4 174.4;" xml:space="preserve">
<style type="text/css">
	.st0{fill:#FF4055;}
</style>
<path id="icon-large-course.svg" class="st0" d="M-106.5,341.1H-286V213.6h179.5L-106.5,341.1L-106.5,341.1z M-278,333.2h163.5
	V221.5H-278V333.2z M-90.5,357.1H-266c-2.2,0-4-1.8-4-4c0-2.2,1.8-4,4-4c0,0,0,0,0,0h167.5V233.5c0-2.2,1.8-4,4-4c2.2,0,4,1.8,4,4
	V357.1z M-74.6,373h-175.5c-2.2,0-4-1.8-4-4c0-2.2,1.8-4,4-4c0,0,0,0,0,0h167.5V249.4c0-2.2,1.8-4,4-4c2.2,0,4,1.8,4,4V373z
	 M-59.6,388h-175.5c-2.2,0-4-1.8-4-4c0-2.2,1.8-4,4-4c0,0,0,0,0,0h167.5V264.4c0-2.2,1.8-4,4-4s4,1.8,4,4c0,0,0,0,0,0L-59.6,388
	L-59.6,388z"/>
</svg>
