<svg xmlns="http://www.w3.org/2000/svg" width="661.03" height="609" viewBox="0 0 661.03 609">
  <defs>
    <style>
      .cls-1 {
        fill: #fff;
        fill-rule: evenodd;
      }
    </style>
  </defs>
  <path id="icon-falling-dollars.svg" class="cls-1" d="M4470.03,704.172a9.424,9.424,0,0,1-9.29-7.827L4421.12,465.81a9.418,9.418,0,0,1,7.69-10.879l371.65-63.787a9.429,9.429,0,0,1,10.89,7.691l39.62,230.533a9.427,9.427,0,0,1-7.7,10.879l-371.65,63.79A9.588,9.588,0,0,1,4470.03,704.172ZM4441.3,471.908l36.42,211.963,353.07-60.6-36.43-211.961Zm194.61,130.6a55.013,55.013,0,1,1,9.43-.807A55.772,55.772,0,0,1,4635.91,602.509Zm0.21-90.984a36.629,36.629,0,0,0-6.19.529A35.967,35.967,0,1,0,4636.12,511.525Zm115.41,78.212a22.507,22.507,0,1,1,3.84-.329A22.717,22.717,0,0,1,4751.53,589.737Zm0.06-26a3.783,3.783,0,0,0-.62.056,3.567,3.567,0,0,0-1.45,6.438,3.576,3.576,0,0,0,5.58-3.529v0A3.578,3.578,0,0,0,4751.59,563.738ZM4520.5,550.282a22.419,22.419,0,1,1,22.11-26.223v0A22.422,22.422,0,0,1,4520.5,550.282Zm0.01-25.993a3.681,3.681,0,0,0-.61.053,3.575,3.575,0,1,0,4.13,2.909h0A3.576,3.576,0,0,0,4520.51,524.289Zm233.94-69.99a13.376,13.376,0,0,1,13.3,11.352l19.81,115.266a13.447,13.447,0,0,1-11.15,15.757L4520.1,640.667a14.508,14.508,0,0,1-2.47.213,13.365,13.365,0,0,1-13.29-11.351l-19.81-115.267a13.454,13.454,0,0,1,11.14-15.757l256.31-43.993a14.789,14.789,0,0,1,2.47-.213m0-18.842a33.424,33.424,0,0,0-5.66.485l-256.31,43.992a32.285,32.285,0,0,0-26.53,37.517l19.8,115.267a32.272,32.272,0,0,0,31.88,27,33.54,33.54,0,0,0,5.67-.485l256.3-43.993a32.285,32.285,0,0,0,26.54-37.517l-19.81-115.267a32.281,32.281,0,0,0-31.88-27h0Zm27.73,250.531,280.94,120.893-75.08,174.273L4707.09,860.26l75.09-174.272m0.01-18.847a18.855,18.855,0,0,0-17.33,11.4l-75.08,174.272a18.839,18.839,0,0,0,9.86,24.758L4980.58,998.46a18.868,18.868,0,0,0,24.78-9.855l75.08-174.272a18.839,18.839,0,0,0-9.86-24.758L4789.63,668.682a18.792,18.792,0,0,0-7.44-1.541h0Zm102.93,148.368h0a18.057,18.057,0,1,1-16.6,10.923,17.973,17.973,0,0,1,16.6-10.923m0-18.842a36.934,36.934,0,1,0,14.58,3.018,36.927,36.927,0,0,0-14.58-3.018h0Zm79.51,105.545a10.544,10.544,0,1,1-5.52-13.843A10.553,10.553,0,0,1,4964.63,902.212ZM4824.97,773.253a10.549,10.549,0,1,1-5.52-13.843A10.566,10.566,0,0,1,4824.97,773.253Zm-18.08-32.492a7.757,7.757,0,0,1,3.08.657l193.76,83.374a7.351,7.351,0,0,1,3.93,9.868L4970.12,921.8a7.356,7.356,0,0,1-6.79,4.586,7.841,7.841,0,0,1-3.09-.658L4766.49,842.35a7.337,7.337,0,0,1-3.93-9.869l37.54-87.135a7.357,7.357,0,0,1,6.79-4.585m0-18.842a26.2,26.2,0,0,0-24.11,15.975l-37.54,87.136a26.185,26.185,0,0,0,13.79,34.626l193.76,83.375a26.6,26.6,0,0,0,10.54,2.194,26.209,26.209,0,0,0,24.11-15.977l37.54-87.136a26.188,26.188,0,0,0-13.79-34.626l-193.76-83.375a26.618,26.618,0,0,0-10.54-2.192h0Z" transform="translate(-4420.97 -391)"/>
</svg>
