<?xml version="1.0" encoding="utf-8"?>
<!-- Generator: Adobe Illustrator 19.1.0, SVG Export Plug-In . SVG Version: 6.00 Build 0)  -->
<svg version="1.1" id="Layer_1" xmlns="http://www.w3.org/2000/svg" xmlns:xlink="http://www.w3.org/1999/xlink" x="0px" y="0px"
	 viewBox="-293 220.2 212.9 160.8" style="enable-background:new -293 220.2 212.9 160.8;" xml:space="preserve">
<style type="text/css">
	.st0{fill:#FF4055;}
</style>
<path id="icon-medium-course.svg" class="st0" d="M-112.3,348.9H-293V220.2h180.7L-112.3,348.9L-112.3,348.9z M-285,340.8h164.7
	V228.3H-285V340.8z M-96.2,364.9h-176.7c-2.2,0-4-1.8-4-4s1.8-4,4-4h168.7V240.3c0-2.2,1.8-4,4-4s4,1.8,4,4L-96.2,364.9L-96.2,364.9
	z M-80.1,381h-176.7c-2.2,0-4-1.8-4-4s1.8-4,4-4h168.7V256.4c0-2.2,1.8-4,4-4c2.2,0,4,1.8,4,4c0,0,0,0,0,0.1V381z"/>
</svg>
