<?xml version="1.0" encoding="utf-8"?>
<!-- Generator: Adobe Illustrator 19.1.0, SVG Export Plug-In . SVG Version: 6.00 Build 0)  -->
<svg version="1.1" id="Layer_1" xmlns="http://www.w3.org/2000/svg" xmlns:xlink="http://www.w3.org/1999/xlink" x="0px" y="0px"
	 viewBox="-93 95.3 111.3 111.7" style="enable-background:new -93 95.3 111.3 111.7;" xml:space="preserve">
<style type="text/css">
	.st0{fill:#FF4055;}
</style>
<path class="st0" d="M17.1,136.4l-12-12L14,105c0.5-1,0.5-2.2,0-3.3c-0.9-2-3.3-2.9-5.3-2l-19.4,8.8l-12-12
	c-0.9-0.9-2.3-1.3-3.6-1.1c-2.2,0.4-3.5,2.5-3.1,4.7l3.3,16.7l-20.8,8.7c-1.3,0.5-2.2,1.7-2.4,3.1c-0.3,2.2,1.1,4.2,3.3,4.6
	l18.1,2.8l-64,64.2c-1.6,1.6-1.6,4.1,0,5.6c0.7,0.7,1.8,1.2,2.8,1.2c1.1,0,2.1-0.4,2.8-1.2l64-64.2l2.8,18.1
	c0.3,1.7,1.6,3.1,3.4,3.3c0.2,0,0.4,0,0.5,0v0c1.6,0,3-0.9,3.6-2.3l8.8-19.3l17,1.7c1.2,0.1,2.4-0.3,3.2-1.1
	C18.7,140.5,18.7,137.9,17.1,136.4z M-5.2,133.2c-1.7-0.2-3.3,0.8-4,2.3l-4.4,9.8l-2-12.7c0,0,0-0.1,0-0.1c0,0,0-0.1,0-0.1
	c0-0.2-0.1-0.4-0.2-0.6c0,0,0-0.1-0.1-0.1c-0.1-0.2-0.2-0.4-0.3-0.5c0,0,0-0.1-0.1-0.1c-0.3-0.4-0.6-0.8-1.1-1.1
	c-0.1,0-0.1-0.1-0.2-0.1c-0.1-0.1-0.3-0.2-0.4-0.2c-0.1,0-0.2-0.1-0.3-0.1c-0.1,0-0.3-0.1-0.4-0.1c-0.1,0-0.2-0.1-0.3-0.1
	c0,0,0,0-0.1,0l-11.9-1.8l10.8-4.5c1.8-0.7,2.7-2.6,2.4-4.5l-1.4-7l4.6,4.6c1.2,1.2,3,1.5,4.5,0.8l12.2-5.6l-5.5,12.2
	c-0.7,1.5-0.4,3.3,0.8,4.5l6,6.1L-5.2,133.2z"/>
</svg>
