<svg xmlns="http://www.w3.org/2000/svg" width="80" height="80" viewBox="0 0 80 80">
  <defs>
    <style>
      .cls-1 {
        fill: #fff;
        fill-rule: evenodd;
      }
    </style>
  </defs>
  <path id="logo-bloop.svg" class="cls-1" d="M4788.51,7929a11.405,11.405,0,1,0,11.49,11.41A11.457,11.457,0,0,0,4788.51,7929Zm-9.98,37.79a0.929,0.929,0,0,1-.05-0.1c-0.27-.63-0.57-1.24-0.89-1.85-2.2-4.86-2.5-8.18-.5-13.34-4.99,2.3-7.24,2.54-12.79.23a28.733,28.733,0,0,0-2.89-1.27,0.3,0.3,0,0,0-.08-0.04l0.01,0.01a30.238,30.238,0,1,0,19.65,28.29,30.018,30.018,0,0,0-2.46-11.93h0Zm-28.04,23.34a11.405,11.405,0,1,1,11.5-11.41A11.455,11.455,0,0,1,4750.49,7990.13Z" transform="translate(-4720 -7929)"/>
</svg>
