<?xml version="1.0" encoding="utf-8"?>
<!-- Generator: Adobe Illustrator 19.1.0, SVG Export Plug-In . SVG Version: 6.00 Build 0)  -->
<svg version="1.1" id="Layer_1" xmlns="http://www.w3.org/2000/svg" xmlns:xlink="http://www.w3.org/1999/xlink" x="0px" y="0px"
	 viewBox="483 27 1266 248" style="enable-background:new 483 27 1266 248;" xml:space="preserve">
<style type="text/css">
	.st0{opacity:0.2;}
	.st1{fill:#FFFFFF;}
</style>
<g>
	<g class="st0">
		<g>
			<path d="M618.2,206.2h-26.9c-5,0-9.1,4.1-9.1,9.1s4.1,9.1,9.1,9.1h26.9c5,0,9.1-4.1,9.1-9.1S623.2,206.2,618.2,206.2z
				 M589.4,115.4h45.7c5,0,9.1-4.1,9.1-9.1s-4.1-9.1-9.1-9.1h-45.7c-5,0-9.1,4.1-9.1,9.1S584.4,115.4,589.4,115.4z M755.9,151.6
				H492.1c-5,0-9.1,4.1-9.1,9.1s4.1,9.1,9.1,9.1h263.7c5,0,9.1-4.1,9.1-9.1C765,155.7,760.9,151.6,755.9,151.6z"/>
		</g>
	</g>
	<path class="st1" d="M771.2,230.9h41.3L829.2,91H788L771.2,230.9z M837.1,52.6c0-3.4-0.7-6.6-2.1-9.6c-1.4-3-3.2-5.6-5.5-7.8
		c-2.3-2.2-4.9-4-7.9-5.3s-6.1-1.9-9.3-1.9s-6.2,0.7-9,2c-2.9,1.3-5.5,3.1-7.8,5.3c-2.3,2.3-4.1,4.9-5.5,7.8c-1.4,3-2,6.1-2,9.4
		c0,3.3,0.7,6.5,2,9.4s3.1,5.5,5.3,7.7s4.7,4,7.6,5.3c2.9,1.3,5.9,2,9,2s6.2-0.7,9.2-2s5.7-3.1,8-5.3c2.3-2.2,4.2-4.8,5.7-7.7
		C836.4,59,837.1,55.9,837.1,52.6z M972.8,117.8c-1.9-6.7-4.6-12.2-8.1-16.5s-7.6-7.5-12.3-9.5c-4.8-2-10-3-15.8-3
		c-8.9,0-17.3,2.5-25.1,7.4s-14.9,11.7-21.3,20.4v-12.7c0-4.6-1.2-7.9-3.6-9.9c-2.4-2-5.8-3-10.1-3h-21.6l-22.4,184.3h40.8l6.5-52.6
		c3.5,3.2,7.6,5.7,12.1,7.6c4.6,1.9,9.8,2.8,15.7,2.8c9,0,17.6-2.5,25.8-7.4s15.5-11.5,21.8-19.9s11.3-18.1,15-29.1
		s5.6-22.6,5.6-34.9C975.7,132.5,974.7,124.5,972.8,117.8z M931.6,166.6c-1.7,6.7-4,12.8-7,18c-3,5.3-6.5,9.5-10.6,12.8
		c-4.1,3.2-8.6,4.9-13.4,4.9c-2.9,0-5.9-0.4-9.1-1.3c-3.2-0.9-6.1-2.4-8.7-4.5l4.2-33.7c1.7-5.8,3.8-11.3,6.4-16.5s5.3-9.6,8.2-13.4
		c2.9-3.8,6-6.8,9.1-9s6.2-3.3,9-3.3c4.3,0,7.8,2,10.4,6.1c2.6,4,3.9,10.5,3.9,19.4C934.1,153,933.3,159.9,931.6,166.6z
		 M659.5,121.8h53.2L698,140.6h44.5l14.2-18.1c1.5-1.9,2.9-4.1,4.3-6.7c1.3-2.6,2.1-5.4,2.5-8.2l2.2-16.7H663.3L659.5,121.8z
		 M710.9,180.9h-44.4L651.6,200c-1.8,2.3-3.3,4.8-4.6,7.4c-1.3,2.6-2,4.7-2.2,6.4l-2.2,17h104.7l3.8-31H696L710.9,180.9z"/>
</g>
<g>
	<path class="st1" d="M1114.3,221.6c-4.3,3.5-8.7,6.4-13.2,8.5c-4.6,2.1-9.4,3.7-14.6,4.7s-10.8,1.5-17.1,1.5
		c-8.5,0-16.1-1.4-22.8-4.3c-6.8-2.9-12.6-7-17.3-12.3c-4.8-5.3-8.5-11.7-11.1-19.2s-3.9-16-3.9-25.3c0-11.8,1.9-23,5.8-33.6
		c3.9-10.6,9.2-19.9,16.2-27.9c6.9-8,15.1-14.3,24.6-19s19.9-7,31.2-7c9.7,0,17.9,1.6,24.9,4.9c6.9,3.3,13.1,8.5,18.6,15.5l-13.9,16
		c-1,1-2.2,1.9-3.5,2.7c-1.3,0.8-2.7,1.2-4.3,1.2c-1.9,0-3.4-0.4-4.7-1.2c-1.3-0.8-2.6-1.6-4.1-2.5s-3.3-1.7-5.4-2.5
		s-4.9-1.2-8.4-1.2c-4.3,0-8.4,1.2-12.5,3.7c-4,2.5-7.6,6-10.8,10.7c-3.2,4.6-5.7,10.4-7.6,17.1c-1.9,6.8-2.9,14.5-2.9,23.1
		c0,4.8,0.6,9,1.7,12.6s2.6,6.5,4.6,8.9c1.9,2.4,4.2,4.2,6.8,5.4c2.6,1.2,5.4,1.8,8.4,1.8c4.5,0,8.1-0.6,10.8-1.9
		c2.7-1.3,5.1-2.6,7.2-4.1c2-1.5,3.9-2.9,5.7-4.1c1.8-1.3,3.9-1.9,6.4-1.9c1.4,0,2.8,0.3,4.1,1c1.3,0.7,2.5,1.5,3.4,2.6l11.1,13.1
		C1123.1,213.7,1118.6,218,1114.3,221.6z"/>
	<path class="st1" d="M1186.5,236.2c-8.1,0-15.6-1.3-22.6-4s-13.1-6.6-18.2-11.8c-5.2-5.2-9.2-11.5-12.1-19.1s-4.4-16.3-4.4-26.1
		c0-12.8,2.1-24.6,6.3-35.3c4.2-10.7,9.9-20,17.1-27.8c7.1-7.8,15.4-13.9,24.9-18.2c9.4-4.4,19.3-6.5,29.7-6.5
		c8.1,0,15.6,1.3,22.6,4s13,6.6,18.2,11.8c5.2,5.2,9.2,11.5,12.2,19.1s4.5,16.3,4.5,26.1c0,12.6-2.1,24.3-6.3,35
		c-4.2,10.7-9.9,20-17.1,27.9c-7.2,7.8-15.4,14-24.9,18.4C1206.9,234,1196.9,236.2,1186.5,236.2z M1190.4,204.2
		c4.8,0,9.1-1.5,13-4.4c3.8-2.9,7-6.9,9.7-12c2.6-5.1,4.7-11,6.1-17.7s2.2-13.9,2.2-21.5c0-10.5-1.4-18-4.2-22.5
		c-2.8-4.5-7.5-6.8-13.9-6.8c-4.8,0-9.1,1.5-13,4.4c-3.8,2.9-7,6.9-9.7,11.9c-2.6,5-4.7,10.9-6.1,17.7s-2.2,14-2.2,21.6
		c0,10.3,1.4,17.8,4.2,22.4C1179.4,201.9,1184,204.2,1190.4,204.2z"/>
	<path class="st1" d="M1328.5,89.5l-10.9,91.6c-0.2,1.5-0.3,2.9-0.4,4.1c-0.1,1.3-0.1,2.4-0.1,3.6c0,4.9,0.9,8.4,2.6,10.3
		c1.7,1.9,4.3,2.9,7.7,2.9c2.9,0,5.9-0.9,9.1-2.6c3.2-1.7,6.3-4.1,9.3-7.2c3-3.1,5.7-6.9,8.3-11.3c2.6-4.5,4.7-9.4,6.3-14.9
		l9.3-76.5h43.2l-17.5,144.4h-22c-10.2,0-15.3-4.7-15.3-14.2v-9.2c-7,8.7-14.4,15.2-22.4,19.4s-16.3,6.3-24.9,6.3
		c-5.4,0-10.3-1-14.8-2.9s-8.4-4.8-11.7-8.6c-3.3-3.8-5.9-8.4-7.7-13.9c-1.8-5.5-2.7-11.9-2.7-19c0-1.7,0.1-3.4,0.2-5.2
		s0.3-3.6,0.5-5.4l10.9-91.6h43V89.5z"/>
	<path class="st1" d="M1418.9,234l17.6-144.5h22.3c4.5,0,7.9,1,10.4,3.1s3.8,5.5,3.8,10.2v16.4c5.6-9.8,11.6-17.4,18.1-22.7
		c6.5-5.3,13.2-7.9,20.2-7.9c3.9,0,7.8,0.9,11.6,2.6l-7.8,40c-4.7-2-9.2-3.1-13.5-3.1c-7.2,0-13.5,3.2-19,9.7s-10,16.8-13.4,31.1
		l-7.8,64.9h-42.5L1418.9,234L1418.9,234z"/>
	<path class="st1" d="M1614.7,119.9c-1.3,1.7-2.5,2.9-3.6,3.6s-2.6,1.1-4.5,1.1s-3.7-0.4-5.5-1.3c-1.8-0.8-3.8-1.8-5.9-2.9
		s-4.5-2-7.1-2.9c-2.6-0.8-5.7-1.3-9.1-1.3c-6.4,0-11,1.2-13.7,3.7s-4.1,5.6-4.1,9.5c0,2.5,0.8,4.6,2.3,6.4c1.5,1.8,3.6,3.3,6.1,4.7
		s5.4,2.7,8.6,3.8c3.2,1.2,6.5,2.5,9.8,3.9s6.6,3.1,9.8,4.9c3.2,1.9,6.1,4.1,8.6,6.8s4.5,5.9,6.1,9.6c1.5,3.7,2.3,8.1,2.3,13.2
		c0,7.2-1.4,14.1-4.3,20.5c-2.9,6.5-7,12.1-12.4,16.8c-5.4,4.8-11.9,8.6-19.6,11.4c-7.7,2.8-16.3,4.2-25.8,4.2
		c-4.5,0-9.1-0.5-13.5-1.4c-4.5-0.9-8.7-2.2-12.6-3.8s-7.5-3.5-10.8-5.6c-3.3-2.2-5.9-4.5-7.9-7l10.6-15.9c1.3-1.9,2.8-3.3,4.5-4.4
		c1.7-1.1,3.8-1.6,6.3-1.6c2.3,0,4.3,0.6,6,1.7c1.7,1.1,3.5,2.3,5.4,3.6s4.3,2.5,7,3.6s6.2,1.7,10.6,1.7c6.1,0,10.7-1.4,13.6-4.1
		c3-2.7,4.5-6,4.5-9.7c0-2.9-0.8-5.2-2.3-7.1c-1.5-1.9-3.6-3.5-6.1-4.8s-5.3-2.6-8.5-3.6c-3.2-1.1-6.4-2.3-9.7-3.6
		c-3.3-1.3-6.6-2.8-9.7-4.5c-3.2-1.7-6-3.9-8.5-6.5s-4.5-5.8-6.1-9.6c-1.5-3.8-2.3-8.4-2.3-13.8c0-6.7,1.2-13.2,3.7-19.5
		s6.1-11.9,11-16.8s10.9-8.8,18.2-11.8c7.2-3,15.7-4.5,25.3-4.5c9.7,0,18.3,1.7,25.8,5c7.6,3.3,13.8,7.4,18.7,12.3L1614.7,119.9z"/>
	<path class="st1" d="M1749,125.1c0,6.6-1.3,12.6-3.9,18.1s-7.1,10.3-13.6,14.6c-6.5,4.2-15.1,7.8-26,10.8s-24.6,5.3-41.2,7
		c0.2,9.8,2.3,17,6.5,21.6c4.1,4.6,10.2,6.8,18.3,6.8c3.8,0,7.1-0.3,9.9-1c2.8-0.6,5.2-1.5,7.3-2.5c2.1-1,4-2.1,5.6-3.2
		c1.7-1.1,3.3-2.2,4.8-3.2s3.1-1.9,4.8-2.5c1.7-0.6,3.6-1,5.7-1c1.4,0,2.7,0.3,4,1s2.5,1.6,3.5,2.7l11.1,13c-5.1,5-10.1,9.4-15,13
		c-4.9,3.7-9.9,6.7-15,9.1c-5.2,2.4-10.6,4.1-16.4,5.2c-5.8,1.1-12.1,1.7-19,1.7c-8.5,0-16.4-1.5-23.5-4.4s-13.3-7.1-18.5-12.4
		c-5.2-5.3-9.1-11.8-12-19.3c-2.8-7.5-4.2-15.9-4.2-25.1c0-7.7,0.9-15.2,2.6-22.6c1.7-7.3,4.2-14.2,7.4-20.7
		c3.2-6.5,7.1-12.4,11.8-17.8c4.6-5.4,9.9-10.1,15.7-14c5.8-3.9,12.2-6.9,19.1-9.1s14.3-3.3,22.1-3.3c7.7,0,14.6,1.1,20.5,3.3
		c6,2.2,11,5.1,15.1,8.7s7.2,7.6,9.3,12C1747.9,116.1,1749,120.6,1749,125.1z M1698.3,116.7c-7.1,0-13.4,2.9-18.8,8.6
		c-5.4,5.7-9.4,13.5-12.1,23.5c9-1.4,16.3-2.9,21.9-4.4s9.9-3.2,13-5s5.1-3.8,6.2-5.8c1.1-2.1,1.6-4.3,1.6-6.8
		c0-2.4-0.9-4.7-2.8-6.8C1705.4,117.8,1702.4,116.7,1698.3,116.7z"/>
</g>
</svg>
